<svg width="15" height="18" viewBox="0 0 15 18" fill="none" xmlns="http://www.w3.org/2000/svg">
<g clip-path="url(#clip0_21_55)">
<path fill-rule="evenodd" clip-rule="evenodd" d="M8.90298 6.41196C9.42301 6.1374 10.0847 5.73324 10.7472 5.1795C10.8869 5.48664 10.9022 5.75466 10.8302 5.97108C10.7792 6.1236 10.6831 6.25626 10.5567 6.3618C10.4199 6.47586 10.249 6.5589 10.0601 6.60378C9.70159 6.68928 9.28305 6.63936 8.90298 6.41196ZM8.99314 9.22512L9.68153 9.64614C8.27597 10.4803 7.89387 12.0291 7.43997 13.5377C6.98612 12.0291 6.60396 10.4803 5.19846 9.64614L5.88685 9.22512C5.95344 9.19847 6.01036 9.15019 6.04944 9.08719C6.08853 9.0242 6.10779 8.94971 6.10444 8.87442C6.04138 7.4616 6.40166 6.83682 6.88764 6.44454C7.06194 6.30402 7.25223 6.23346 7.43997 6.23346C7.6277 6.23346 7.81799 6.30402 7.99235 6.44454C8.47833 6.83682 8.83861 7.4616 8.77554 8.87442C8.7722 8.94971 8.79145 9.0242 8.83054 9.08719C8.86963 9.15019 8.92655 9.19847 8.99314 9.22512ZM7.43997 0C8.23568 0.02262 9.03338 0.18618 9.72567 0.50436C10.2051 0.72498 10.6524 1.0164 11.0575 1.36488C11.2404 1.5222 11.391 1.67418 11.5569 1.84914C12.0044 1.86552 12.6584 1.33914 12.962 0.8466C12.4395 2.6604 10.0551 4.80234 8.40432 5.62194C8.40364 5.62164 8.40318 5.62122 8.40268 5.62086C8.10642 5.38134 7.77322 5.26158 7.43997 5.26158C7.10671 5.26158 6.77357 5.38134 6.47731 5.62086C6.4768 5.62116 6.47635 5.6217 6.47567 5.62194C4.82486 4.80234 2.44049 2.6604 1.91797 0.8466C2.22153 1.33914 2.87552 1.86552 3.32302 1.84914C3.489 1.67424 3.63962 1.5222 3.82248 1.36488C4.22753 1.0164 4.67486 0.72498 5.15426 0.50436C5.84661 0.18618 6.64431 0.02262 7.43997 0ZM5.97694 6.41196C5.45697 6.1374 4.79522 5.73324 4.13279 5.1795C3.9931 5.48664 3.9778 5.75466 4.04971 5.97108C4.10077 6.1236 4.19688 6.25626 4.32319 6.3618C4.46009 6.47586 4.631 6.5589 4.81993 6.60378C5.1784 6.68928 5.59688 6.63936 5.97694 6.41196Z" fill="white"/>
<path fill-rule="evenodd" clip-rule="evenodd" d="M11.4728 4.50098C11.8376 4.11128 12.1589 3.67994 12.4173 3.29504L12.5485 3.55658C12.9711 4.4516 13.1906 5.34302 13.1906 6.34622L13.1897 7.93814L13.1976 8.76338C13.2282 10.7893 13.6422 12.8391 14.58 14.715L12.6179 13.0396L11.2295 15.4252L9.77086 13.9713L7.44005 17.9763L5.10924 13.9714L3.65069 15.4252L2.2623 13.0397L0.300049 14.715C1.23788 12.8392 1.65189 10.7894 1.68255 8.76344L1.69048 7.9382L1.68957 6.34628C1.68957 5.34302 1.90904 4.4516 2.33166 3.55664L2.46285 3.2951C2.72125 3.68 3.04255 4.11128 3.40731 4.50104L3.29341 4.75154C3.07213 5.23808 2.99886 5.7821 3.17124 6.29948C3.28236 6.63272 3.48517 6.9185 3.74663 7.13666C4.0005 7.34852 4.30094 7.49132 4.6155 7.56632C4.82041 7.61516 5.02917 7.63526 5.23657 7.62842C5.18817 7.91888 5.16704 8.22014 5.16568 8.5271L3.31472 9.65906L4.74306 10.5068C4.85722 10.5746 4.9659 10.6522 5.06798 10.7389C6.24557 11.8584 6.95357 15.1702 7.44011 16.7879C7.9267 15.1702 8.63464 11.8584 9.81229 10.7389C9.91436 10.6522 10.023 10.5746 10.1372 10.5068L11.5656 9.65906L9.71453 8.5271C9.71317 8.22014 9.69204 7.91888 9.64365 7.62842C9.85104 7.63526 10.0598 7.61516 10.2647 7.56632C10.5793 7.49132 10.8798 7.34852 11.1336 7.13666C11.395 6.9185 11.5979 6.63272 11.7089 6.29948C11.8814 5.7821 11.808 5.23814 11.5868 4.75154L11.4729 4.50104L11.4728 4.50098Z" fill="white"/>
</g>
<defs>
<clipPath id="clip0_21_55">
<rect width="14.28" height="18" fill="white" transform="translate(0.300049)"/>
</clipPath>
</defs>
</svg>
