<svg width="17" height="18" viewBox="0 0 17 18" fill="none" xmlns="http://www.w3.org/2000/svg">
<g clip-path="url(#clip0_21_61)">
<path fill-rule="evenodd" clip-rule="evenodd" d="M6.39498 1.02725C5.32387 1.58521 4.44756 2.05736 4.44774 2.07656C4.44822 2.12613 7.01844 3.42779 7.10966 3.42461C7.15116 3.42322 7.4522 3.28465 7.7786 3.11671L8.37215 2.81142L9.02038 3.14462L9.66858 3.47789L10.7301 3.00089C12.3297 2.28212 12.4958 2.20336 12.4698 2.17689C12.4352 2.14178 11.8615 1.83357 10.3049 1.0141C9.55267 0.618042 8.82254 0.229718 8.68237 0.15114C8.54222 0.0725632 8.40842 0.00935299 8.38505 0.0105766C8.36167 0.0118001 7.46611 0.469307 6.39498 1.02725ZM1.6971 3.45997L0.58209 4.03591V6.56362C0.58209 7.95387 0.596731 9.0913 0.61469 9.0913C0.632587 9.0913 1.18118 8.85349 1.83375 8.56285L3.02025 8.0344V5.37003L3.60005 5.68591C4.04683 5.92911 4.49389 6.17181 4.94121 6.41401L5.70255 6.82623L6.04133 6.67303C6.2538 6.5768 6.46585 6.47964 6.67746 6.38154C6.84098 6.30538 7.24239 6.12459 7.56945 5.97969C7.89651 5.83473 8.19927 5.68896 8.2422 5.65574C8.29923 5.61161 7.60384 5.22733 5.67014 4.23434C4.21255 3.48583 2.97321 2.87579 2.91606 2.87872C2.8589 2.88164 2.31037 3.14317 1.6971 3.45997ZM12.6707 3.62171C11.9113 3.96453 11.2895 4.25873 11.2888 4.2755C11.2881 4.29226 11.702 4.53836 12.2086 4.82231C12.7151 5.10632 13.1296 5.35387 13.1296 5.37251C13.1296 5.39112 12.6813 5.60831 12.1335 5.85526C11.5857 6.10215 10.2009 6.72753 9.05614 7.24501L5.22051 8.97877C4.25566 9.41494 3.38596 9.80808 3.28785 9.85252C1.3171 10.7447 0.775412 10.9922 0.701024 11.0347C0.626221 11.0775 0.609278 11.326 0.595964 12.5735L0.580078 14.0613L1.57717 14.5694L2.57425 15.0774L3.95685 14.4534C4.7173 14.1103 5.33945 13.8115 5.33945 13.7895C5.33945 13.7676 5.19892 13.676 5.02725 13.586C4.8555 13.4959 4.50096 13.2966 4.2393 13.1429C3.97767 12.9892 3.71678 12.8482 3.6595 12.8295C3.60224 12.8109 3.55623 12.7783 3.55716 12.757C3.55811 12.7358 4.16695 12.4466 4.91004 12.1143C6.35336 11.469 7.4579 10.9716 9.8292 9.89926C10.8896 9.41985 11.95 8.94072 13.0107 8.46189C13.9428 8.04116 15.0266 7.54976 15.4191 7.36992L16.1327 7.04294L16.1486 5.53815L16.1645 4.03343L15.1532 3.51435C14.597 3.22888 14.1215 2.99601 14.0966 2.99687C14.0717 2.99765 13.43 3.2788 12.6707 3.62171ZM15.8617 9.0504C15.7127 9.12319 15.4184 9.25949 15.2076 9.35324C14.9969 9.447 14.597 9.62745 14.3189 9.7543L13.8135 9.98485L13.8019 11.3059C13.7956 12.0325 13.7688 12.6237 13.7425 12.6199C13.6827 12.611 12.7353 12.1251 11.783 11.6149C11.0957 11.2466 11.0525 11.232 10.891 11.312C10.7976 11.3582 10.2395 11.6085 9.6508 11.8683C9.06207 12.128 8.5612 12.3574 8.53764 12.3782C8.51414 12.3989 9.69902 13.0411 11.1708 13.8054L13.8466 15.1949L14.9897 14.6036C15.6183 14.2784 16.1529 13.9818 16.1775 13.9445C16.2329 13.8606 16.2281 8.90654 16.1727 8.91324C16.1507 8.91587 16.0108 8.97761 15.8617 9.0504ZM9.53187 14.8652C9.3336 14.9505 9.13537 15.0358 8.9372 15.1213C8.33878 15.3802 8.45605 15.3888 7.74411 15.0344C7.26993 14.7983 7.06553 14.7255 6.97681 14.7609C6.91026 14.7874 6.33754 15.045 5.70398 15.3335C5.07047 15.6219 4.53016 15.8578 4.50328 15.8578C4.23748 15.8578 4.67937 16.1218 6.38453 16.982L8.38428 17.9906L9.22567 17.5752C9.68845 17.3468 10.6218 16.8893 11.2999 16.5586C11.978 16.2278 12.5244 15.9486 12.5141 15.9381C12.5038 15.9276 11.9357 15.6358 11.2515 15.2897L10.0076 14.6606L9.53187 14.8652Z" fill="white"/>
</g>
<defs>
<clipPath id="clip0_21_61">
<rect width="15.6528" height="18" fill="white" transform="translate(0.580078)"/>
</clipPath>
</defs>
</svg>
