<svg width="12" height="14" viewBox="0 0 12 14" fill="none" xmlns="http://www.w3.org/2000/svg">
<path d="M0.666748 1.66665C0.666748 1.31302 0.807224 0.973886 1.05727 0.723837C1.30732 0.473789 1.64646 0.333313 2.00008 0.333313H7.33341C7.51021 0.333351 7.67975 0.403613 7.80475 0.528646L11.1381 3.86198C11.2631 3.98697 11.3334 4.15652 11.3334 4.33331V12.3333C11.3334 12.6869 11.1929 13.0261 10.9429 13.2761C10.6928 13.5262 10.3537 13.6666 10.0001 13.6666H2.00008C1.64646 13.6666 1.30732 13.5262 1.05727 13.2761C0.807224 13.0261 0.666748 12.6869 0.666748 12.3333V1.66665ZM9.72408 4.33331L7.33341 1.94265V4.33331H9.72408ZM6.00008 1.66665H2.00008V12.3333H10.0001V5.66665H6.66675C6.48994 5.66665 6.32037 5.59641 6.19534 5.47138C6.07032 5.34636 6.00008 5.17679 6.00008 4.99998V1.66665ZM3.33341 7.66665C3.33341 7.48983 3.40365 7.32027 3.52868 7.19524C3.6537 7.07022 3.82327 6.99998 4.00008 6.99998H8.00008C8.17689 6.99998 8.34646 7.07022 8.47149 7.19524C8.59651 7.32027 8.66675 7.48983 8.66675 7.66665C8.66675 7.84346 8.59651 8.01303 8.47149 8.13805C8.34646 8.26307 8.17689 8.33331 8.00008 8.33331H4.00008C3.82327 8.33331 3.6537 8.26307 3.52868 8.13805C3.40365 8.01303 3.33341 7.84346 3.33341 7.66665ZM3.33341 10.3333C3.33341 10.1565 3.40365 9.98693 3.52868 9.86191C3.6537 9.73688 3.82327 9.66665 4.00008 9.66665H8.00008C8.17689 9.66665 8.34646 9.73688 8.47149 9.86191C8.59651 9.98693 8.66675 10.1565 8.66675 10.3333C8.66675 10.5101 8.59651 10.6797 8.47149 10.8047C8.34646 10.9297 8.17689 11 8.00008 11H4.00008C3.82327 11 3.6537 10.9297 3.52868 10.8047C3.40365 10.6797 3.33341 10.5101 3.33341 10.3333Z" fill="white" fill-opacity="0.6"/>
</svg>
