<svg width="16" height="18" viewBox="0 0 16 18" fill="none" xmlns="http://www.w3.org/2000/svg">
<g clip-path="url(#clip0_21_41)">
<path d="M6.1301 4.09596C5.93505 4.0681 5.92576 4.05881 6.01864 4.04952C6.19511 4.02166 6.60378 4.05881 6.8917 4.12382C7.56044 4.28172 8.16415 4.69039 8.80502 5.40556L8.9722 5.6006L9.21369 5.56345C10.2446 5.39627 11.3035 5.5263 12.1858 5.93497C12.4273 6.04643 12.8081 6.26934 12.8546 6.32506C12.8731 6.34364 12.901 6.46438 12.9196 6.58513C12.9846 7.02166 12.9567 7.34674 12.8174 7.59751C12.7431 7.73683 12.7431 7.77398 12.7895 7.89472C12.8267 7.9876 12.9381 8.05262 13.0403 8.05262C13.2632 8.05262 13.4954 7.69968 13.6069 7.20742L13.6533 7.01237L13.7369 7.10525C14.2106 7.63466 14.5821 8.36841 14.6378 8.88853L14.6564 9.02785L14.5728 8.90711C14.4335 8.69348 14.3035 8.55417 14.127 8.43342C13.8112 8.2198 13.4768 8.15478 12.5945 8.10835C11.7957 8.06191 11.3406 7.99689 10.8948 7.84828C10.1332 7.59751 9.7431 7.27243 8.84217 6.07429C8.44279 5.54488 8.19201 5.25695 7.94124 5.01547C7.39325 4.48605 6.84527 4.20742 6.1301 4.09596Z" fill="white"/>
<path d="M13.0496 5.27556C13.0682 4.92262 13.1146 4.69043 13.2168 4.4768C13.2539 4.39321 13.2911 4.31891 13.3004 4.31891C13.3096 4.31891 13.2911 4.38392 13.2632 4.45823C13.1889 4.66256 13.1796 4.95049 13.226 5.27556C13.2911 5.69352 13.3189 5.74925 13.7647 6.20436C13.9691 6.41798 14.2106 6.68733 14.3034 6.79878L14.4613 7.00312L14.3034 6.85451C14.1084 6.66875 13.6626 6.31581 13.5604 6.26937C13.4954 6.23222 13.4861 6.23222 13.4397 6.27866C13.4025 6.31581 13.3932 6.37154 13.3932 6.64089C13.3839 7.05885 13.3282 7.31891 13.1889 7.58826C13.1146 7.72758 13.1053 7.69971 13.1703 7.54182C13.2168 7.42108 13.226 7.36535 13.226 6.96597C13.226 6.15792 13.1332 5.96287 12.5666 5.63779C12.4273 5.5542 12.1858 5.43346 12.0465 5.36844C11.8979 5.30343 11.7864 5.2477 11.7957 5.2477C11.8143 5.22913 12.3623 5.38702 12.5759 5.4799C12.901 5.60993 12.9567 5.61922 12.9938 5.60993C13.0217 5.58207 13.0403 5.50776 13.0496 5.27556Z" fill="white"/>
<path d="M6.51084 6.65942C6.12074 6.12072 5.86997 5.28481 5.9257 4.66251L5.94427 4.46747L6.03715 4.48604C6.20434 4.51391 6.49226 4.62536 6.63158 4.70895C7.0031 4.93186 7.17028 5.23837 7.32818 5.99998C7.37462 6.22289 7.43963 6.48295 7.46749 6.56654C7.51393 6.70586 7.6904 7.03094 7.83901 7.23527C7.94118 7.38388 7.87616 7.45818 7.64397 7.4396C7.29102 7.40245 6.81734 7.07738 6.51084 6.65942Z" fill="white"/>
<path d="M12.5758 10.6997C10.7368 9.9567 10.0867 9.31584 10.0867 8.22915C10.0867 8.07125 10.096 7.94122 10.096 7.94122C10.1052 7.94122 10.1703 7.99695 10.2539 8.06197C10.6254 8.35918 11.0433 8.48921 12.2043 8.65639C12.8823 8.75856 13.2724 8.83286 13.6254 8.95361C14.7492 9.32512 15.4458 10.0867 15.613 11.1177C15.6594 11.4149 15.6316 11.9815 15.5573 12.2787C15.4922 12.5109 15.3065 12.9381 15.26 12.9474C15.2508 12.9474 15.2322 12.901 15.2322 12.8267C15.2136 12.4366 15.0186 12.0651 14.6935 11.7771C14.3034 11.4428 13.8018 11.192 12.5758 10.6997Z" fill="white"/>
<path d="M11.2756 11.0062C11.257 10.8669 11.2106 10.6904 11.1827 10.6161L11.1363 10.4768L11.2199 10.579C11.3406 10.7183 11.4335 10.8855 11.5171 11.1177C11.5821 11.2941 11.5821 11.3499 11.5821 11.6378C11.5821 11.9164 11.5728 11.9815 11.5171 12.1393C11.4242 12.3901 11.3128 12.5666 11.127 12.7616C10.7926 13.1053 10.3561 13.291 9.73382 13.3746C9.62237 13.3839 9.30658 13.4118 9.02794 13.4304C8.33134 13.4675 7.86695 13.5418 7.44899 13.6904C7.39326 13.709 7.33754 13.7276 7.32825 13.7183C7.30967 13.6997 7.5976 13.5325 7.8298 13.4211C8.15487 13.2632 8.48924 13.1796 9.22298 13.0496C9.58521 12.9938 9.95673 12.9195 10.0496 12.8824C10.9691 12.5945 11.4242 11.8793 11.2756 11.0062Z" fill="white"/>
<path d="M12.1208 12.5016C11.8793 11.9722 11.8236 11.4706 11.9536 10.9969C11.9722 10.9505 11.9908 10.9041 12.0094 10.9041C12.0279 10.9041 12.0837 10.9319 12.1394 10.9691C12.2509 11.0434 12.4831 11.1734 13.0775 11.4985C13.8298 11.9071 14.257 12.2229 14.5543 12.5852C14.8143 12.901 14.9722 13.2632 15.0465 13.709C15.093 13.9598 15.0651 14.5635 15.0001 14.8143C14.7957 15.6037 14.3314 16.2353 13.6533 16.5976C13.5512 16.6533 13.4676 16.6904 13.4583 16.6904C13.449 16.6904 13.4862 16.5976 13.5419 16.4861C13.7648 16.0124 13.7927 15.5573 13.6255 15.0465C13.5233 14.7307 13.3097 14.3499 12.8824 13.709C12.3716 12.966 12.2509 12.7709 12.1208 12.5016Z" fill="white"/>
<path d="M5.20127 15.3437C5.88858 14.7678 6.73378 14.3592 7.51397 14.2291C7.84833 14.1734 8.40561 14.192 8.71211 14.2756C9.20437 14.4056 9.65019 14.6842 9.88239 15.0279C10.1053 15.3622 10.2075 15.6502 10.3096 16.291C10.3468 16.5418 10.3932 16.8019 10.4025 16.8576C10.4768 17.192 10.6254 17.452 10.8112 17.5913C11.0991 17.805 11.6007 17.8143 12.0929 17.6285C12.1765 17.6006 12.2508 17.5728 12.2508 17.5821C12.2694 17.6006 12.0186 17.7678 11.8514 17.8514C11.6192 17.9722 11.4335 18.0093 11.1827 18.0093C10.7369 18.0093 10.3561 17.7771 10.0496 17.3127C9.98455 17.2198 9.85452 16.9505 9.74307 16.6997C9.41799 15.9474 9.25081 15.7245 8.87 15.4737C8.53564 15.2601 8.10839 15.2136 7.78332 15.3715C7.35607 15.5759 7.24462 16.1239 7.54183 16.4582C7.66257 16.5975 7.88548 16.709 8.07124 16.7369C8.41489 16.7833 8.71211 16.514 8.71211 16.1703C8.71211 15.9474 8.62852 15.8174 8.40561 15.7152C8.10839 15.5852 7.78332 15.7338 7.7926 16.0217C7.7926 16.1424 7.84833 16.2167 7.96907 16.2725C8.04338 16.3096 8.04338 16.3096 7.98765 16.3003C7.7183 16.2446 7.65328 15.9102 7.86691 15.6966C8.12697 15.4366 8.67496 15.548 8.86071 15.9102C8.93502 16.0588 8.94431 16.3561 8.87929 16.5418C8.7214 16.9505 8.27558 17.1641 7.82047 17.0434C7.51397 16.9598 7.38393 16.8762 7.01242 16.4954C6.36226 15.8266 6.11149 15.6966 5.1827 15.5573L5.00623 15.5294L5.20127 15.3437Z" fill="white"/>
<path fill-rule="evenodd" clip-rule="evenodd" d="M0.315714 0.399381C2.4798 3.02786 5.81417 7.11455 5.98135 7.33746C6.12067 7.52322 6.06494 7.69969 5.83274 7.82972C5.70271 7.90403 5.43336 7.97833 5.30333 7.97833C5.15472 7.97833 4.97825 7.90403 4.85751 7.78328C4.77392 7.69969 4.41169 7.17028 3.59435 5.89783C2.97206 4.9226 2.44265 4.11455 2.43336 4.10526C2.39621 4.08669 2.39621 4.08669 3.52934 6.11146C4.24451 7.3839 4.47671 7.83901 4.47671 7.89474C4.47671 8.01548 4.43955 8.0805 4.29095 8.24768C4.04017 8.52632 3.92872 8.84211 3.84513 9.50155C3.75225 10.2353 3.50147 10.7554 2.7863 11.6378C2.36835 12.1579 2.30333 12.2508 2.20116 12.4644C2.07113 12.7245 2.03398 12.8731 2.0154 13.2074C1.99683 13.5604 2.03398 13.7833 2.13615 14.1176C2.22903 14.4149 2.33119 14.6099 2.58197 14.9907C2.79559 15.3251 2.92562 15.5759 2.92562 15.6687C2.92562 15.743 2.9442 15.743 3.27856 15.6687C4.07732 15.483 4.73677 15.1672 5.099 14.7771C5.32191 14.5356 5.37763 14.4056 5.37763 14.0712C5.37763 13.8576 5.36835 13.8111 5.31262 13.6811C5.21974 13.4768 5.04327 13.3096 4.66246 13.0495C4.16092 12.7059 3.94729 12.4272 3.89157 12.0557C3.84513 11.7399 3.90085 11.5263 4.17949 10.9412C4.46742 10.3375 4.54172 10.0867 4.58816 9.47368C4.61602 9.08359 4.66246 8.9257 4.77392 8.80495C4.89466 8.67492 4.99683 8.62848 5.28475 8.59133C5.75844 8.52632 6.06494 8.40557 6.30643 8.17338C6.52005 7.97833 6.61293 7.78328 6.62222 7.49536L6.6315 7.28173L6.51076 7.1517C6.07423 6.65016 0.0277886 0 -7.51499e-05 0C-0.00936308 0 0.139244 0.176471 0.315714 0.399381ZM3.16711 13.6068C3.26927 13.4303 3.21355 13.2074 3.04636 13.096C2.88847 12.9938 2.64698 13.0402 2.64698 13.1796C2.64698 13.2167 2.66556 13.2539 2.72129 13.2724C2.80488 13.3189 2.81417 13.3653 2.74915 13.4675C2.68414 13.5697 2.68414 13.6625 2.76773 13.7276C2.89776 13.8297 3.07423 13.774 3.16711 13.6068Z" fill="white"/>
<path fill-rule="evenodd" clip-rule="evenodd" d="M6.92881 8.72137C6.7059 8.78639 6.49228 9.02788 6.42726 9.26936C6.39011 9.41797 6.40868 9.68732 6.4737 9.77091C6.57587 9.90094 6.66875 9.93809 6.92881 9.93809C7.43964 9.93809 7.87618 9.71518 7.92262 9.44583C7.96906 9.22292 7.77401 8.91642 7.50466 8.7771C7.36534 8.7028 7.07742 8.67493 6.92881 8.72137ZM7.52324 9.18577C7.59754 9.07431 7.56968 8.95357 7.43036 8.86998C7.17958 8.71209 6.79878 8.84212 6.79878 9.0836C6.79878 9.20435 6.99382 9.33438 7.17958 9.33438C7.30033 9.33438 7.46751 9.26007 7.52324 9.18577Z" fill="white"/>
</g>
<defs>
<clipPath id="clip0_21_41">
<rect width="15.3" height="18" fill="white"/>
</clipPath>
</defs>
</svg>
