<svg width="82" height="21" viewBox="0 0 82 21" fill="none" xmlns="http://www.w3.org/2000/svg">
<path d="M68.3423 3.08743H65.6226L71.4281 10.9142L72.4787 8.5979L68.3423 3.08743Z" fill="white"/>
<path d="M74.1436 10.8372L72.8016 12.7269L76.6759 18.0221L79.5694 18.0653L74.1436 10.8372Z" fill="white"/>
<path d="M81.7315 4.28853C82.3866 1.46341 82.3211 -2.59606 75.8353 4.28853C69.4455 11.0712 66.1461 18.0196 65.517 20.9784C69.5706 13.2854 71.9291 9.99961 76.4495 5.20126C81.2402 0.116049 81.7315 2.59346 81.7315 4.28853Z" fill="white"/>
<path d="M0 3.15125H11.7405V5.14994H7.07123V17.5748H4.89374V5.14994H0V3.15125Z" fill="white"/>
<path d="M26.2418 10.3012C26.2418 11.565 26.0547 12.6914 25.6806 13.6805C25.3064 14.6558 24.7976 15.4319 24.1541 16.0088C23.5255 16.5858 22.8296 17.0253 22.0664 17.3276C21.3031 17.616 20.5025 17.7603 19.6644 17.7603C17.8087 17.7603 16.2523 17.0734 14.9952 15.6998C13.738 14.3123 13.1095 12.5128 13.1095 10.3012C13.1095 7.99345 13.7231 6.19393 14.9503 4.90268C16.1924 3.59769 17.7787 2.9452 19.7093 2.9452C21.6399 2.9452 23.2113 3.63203 24.4235 5.00571C25.6357 6.36564 26.2418 8.13081 26.2418 10.3012ZM15.3992 10.3012C15.3992 11.8397 15.8033 13.1104 16.6114 14.1132C17.4345 15.1159 18.4522 15.6173 19.6644 15.6173C20.8617 15.6173 21.8793 15.1228 22.7174 14.1338C23.5555 13.1447 23.9745 11.8672 23.9745 10.3012C23.9745 9.44954 23.8248 8.6322 23.5255 7.84921C23.2412 7.05248 22.7623 6.36564 22.0888 5.7887C21.4154 5.21176 20.6222 4.92329 19.7093 4.92329C18.7964 4.92329 18.0032 5.19115 17.3298 5.72688C16.6563 6.26262 16.1625 6.92885 15.8482 7.72558C15.5489 8.52231 15.3992 9.38086 15.3992 10.3012Z" fill="white"/>
<path d="M37.9388 10.3836V17.5748H35.7613V11.7848H30.0594V17.5748H27.8819V3.15125H30.0594V8.34373L35.7613 3.15125H38.8143L31.5859 9.78609H37.9163L37.9388 10.3836Z" fill="white"/>
<path d="M50.0063 3.15125V5.14994H41.9698V9.04431H48.5472V11.043H41.9698V15.5761H50.0063V17.5748H39.7699V3.15125H50.0063Z" fill="white"/>
<path d="M52.7051 3.15125H57.1498L60.5844 15.5761H61.1232V3.15125H63.3007V17.5748H59.0355L55.4662 5.14994H54.8825V17.5748H52.7051V3.15125Z" fill="white"/>
</svg>
