<svg width="16" height="16" viewBox="0 0 16 16" fill="none" xmlns="http://www.w3.org/2000/svg">
<path d="M4.66675 2.66665C4.66675 2.31302 4.80722 1.97389 5.05727 1.72384C5.30732 1.47379 5.64646 1.33331 6.00008 1.33331H11.3334C11.5102 1.33335 11.6798 1.40361 11.8047 1.52865L15.1381 4.86198C15.2631 4.98697 15.3334 5.15652 15.3334 5.33331V13.3333C15.3334 13.6869 15.1929 14.0261 14.9429 14.2761C14.6928 14.5262 14.3537 14.6666 14.0001 14.6666H6.00008C5.64646 14.6666 5.30732 14.5262 5.05727 14.2761C4.80722 14.0261 4.66675 13.6869 4.66675 13.3333V2.66665ZM13.7241 5.33331L11.3334 2.94265V5.33331H13.7241ZM10.0001 2.66665H6.00008V13.3333H14.0001V6.66665H10.6667C10.4899 6.66665 10.3204 6.59641 10.1953 6.47138C10.0703 6.34636 10.0001 6.17679 10.0001 5.99998V2.66665ZM7.33341 8.66665C7.33341 8.48983 7.40365 8.32027 7.52868 8.19524C7.6537 8.07022 7.82327 7.99998 8.00008 7.99998H12.0001C12.1769 7.99998 12.3465 8.07022 12.4715 8.19524C12.5965 8.32027 12.6667 8.48983 12.6667 8.66665C12.6667 8.84346 12.5965 9.01303 12.4715 9.13805C12.3465 9.26307 12.1769 9.33331 12.0001 9.33331H8.00008C7.82327 9.33331 7.6537 9.26307 7.52868 9.13805C7.40365 9.01303 7.33341 8.84346 7.33341 8.66665ZM7.33341 11.3333C7.33341 11.1565 7.40365 10.9869 7.52868 10.8619C7.6537 10.7369 7.82327 10.6666 8.00008 10.6666H12.0001C12.1769 10.6666 12.3465 10.7369 12.4715 10.8619C12.5965 10.9869 12.6667 11.1565 12.6667 11.3333C12.6667 11.5101 12.5965 11.6797 12.4715 11.8047C12.3465 11.9297 12.1769 12 12.0001 12H8.00008C7.82327 12 7.6537 11.9297 7.52868 11.8047C7.40365 11.6797 7.33341 11.5101 7.33341 11.3333Z" fill="white" fill-opacity="0.6"/>
</svg>